<svg width="57" height="57" viewBox="0 0 57 57" fill="none" xmlns="http://www.w3.org/2000/svg">
<g id="Frame" clip-path="url(#clip0_1048_1952)">
<g id="Group">
<g id="Group_2">
<g id="Group_3">
<path id="Vector" d="M35.9017 14.4302C35.3264 14.0981 34.5907 14.2952 34.2585 14.8705C33.9264 15.4458 34.1235 16.1815 34.6988 16.5137C38.1458 18.5038 39.3314 22.9269 37.3416 26.3733C37.0094 26.9486 37.2066 27.6843 37.7819 28.0165C38.3572 28.3487 39.0929 28.1515 39.425 27.5762C42.0781 22.9809 40.4976 17.0837 35.9017 14.4302Z" fill="#FF9E2A" fill-opacity="0.5"/>
</g>
</g>
<g id="Group_4">
<g id="Group_5">
<path id="Vector_2" d="M35.4614 8.99419C30.187 7.26033 24.1886 8.83672 20.4503 12.9927C17.2936 16.5022 16.0204 21.1203 16.9574 25.6628C17.4154 27.8832 17.0458 30.2517 15.9403 32.1665L14.7374 34.25C13.9371 35.6362 14.1647 37.3377 15.1811 38.4684C14.1884 41.1385 15.1696 44.3148 17.7794 45.8216C20.3885 47.3279 23.63 46.5905 25.4466 44.3952C26.9339 44.7101 28.5213 44.0564 29.3217 42.6701L30.5246 40.5866C31.6322 38.6681 33.4877 37.1885 35.7489 36.4202C39.0588 35.2958 41.8442 33.0093 43.592 29.982C48.1455 22.0951 44.3892 11.9295 35.4614 8.99419ZM18.9822 43.7382C17.6431 42.965 17.001 41.3657 17.2824 39.877L23.1759 43.2796C22.0274 44.2677 20.3213 44.5113 18.9822 43.7382ZM27.2382 41.4673C26.9065 42.0417 26.1694 42.2392 25.595 41.9076L17.2612 37.096C16.6868 36.7644 16.4892 36.0273 16.8209 35.4529L17.4223 34.4111L27.8396 40.4256L27.2382 41.4673ZM34.975 34.1424C32.5652 34.9611 30.5173 36.4438 29.0998 38.3752L18.5681 32.2947C19.5329 30.1005 19.8067 27.5673 19.3137 25.1769C18.5328 21.3911 19.599 17.5365 22.2389 14.6017C25.3207 11.1756 30.3324 9.84061 34.7101 11.2798C42.1834 13.7363 45.2996 22.2129 41.5086 28.7791C40.0526 31.3009 37.7323 33.2057 34.975 34.1424Z" fill="#FF9E2A" fill-opacity="0.5"/>
</g>
</g>
<g id="Group_6">
<g id="Group_7">
<path id="Vector_3" d="M16.4376 14.3044L14.3541 13.1015C13.7788 12.7693 13.0431 12.9665 12.7109 13.5418C12.3788 14.1171 12.5759 14.8528 13.1512 15.185L15.2347 16.3878C15.81 16.72 16.5457 16.5229 16.8779 15.9476C17.21 15.3722 17.0129 14.6365 16.4376 14.3044Z" fill="#FF9E2A" fill-opacity="0.5"/>
</g>
</g>
<g id="Group_8">
<g id="Group_9">
<path id="Vector_4" d="M19.8763 9.34486L19.2537 7.02108C19.0818 6.37941 18.4222 5.99858 17.7804 6.17052C17.1387 6.34247 16.7579 7.00202 16.9299 7.64374L17.5525 9.96751C17.7244 10.6092 18.384 10.9901 19.0258 10.8181C19.6675 10.6461 20.0483 9.98657 19.8763 9.34486Z" fill="#FF9E2A" fill-opacity="0.5"/>
</g>
</g>
<g id="Group_10">
<g id="Group_11">
<path id="Vector_5" d="M13.5095 20.3724C13.3375 19.7307 12.6779 19.3499 12.0363 19.5218L9.71248 20.1445C9.07077 20.3164 8.68998 20.976 8.86192 21.6177C9.0338 22.2594 9.69338 22.6403 10.3351 22.4683L12.6589 21.8456C13.3006 21.6737 13.6814 21.0141 13.5095 20.3724Z" fill="#FF9E2A" fill-opacity="0.5"/>
</g>
</g>
<g id="Group_12">
<g id="Group_13">
<path id="Vector_6" d="M47.8283 32.4279L45.7449 31.225C45.1695 30.8928 44.4338 31.09 44.1017 31.6653C43.7695 32.2406 43.9667 32.9763 44.542 33.3084L46.6254 34.5113C47.2007 34.8435 47.9364 34.6463 48.2686 34.071C48.6008 33.4957 48.4036 32.76 47.8283 32.4279Z" fill="#FF9E2A" fill-opacity="0.5"/>
</g>
</g>
<g id="Group_14">
<g id="Group_15">
<path id="Vector_7" d="M52.1176 25.9951C51.9457 25.3534 51.2861 24.9726 50.6444 25.1446L48.3206 25.7672C47.6789 25.9392 47.2981 26.5987 47.4701 27.2404C47.642 27.882 48.3016 28.2629 48.9433 28.091L51.2671 27.4683C51.9088 27.2964 52.2896 26.6368 52.1176 25.9951Z" fill="#FF9E2A" fill-opacity="0.5"/>
</g>
</g>
<g id="Group_16">
<g id="Group_17">
<path id="Vector_8" d="M44.0497 39.9691L43.427 37.6453C43.2551 37.0036 42.5955 36.6228 41.9538 36.7948C41.3121 36.9667 40.9313 37.6263 41.1032 38.268L41.7259 40.5917C41.8978 41.2334 42.5574 41.6143 43.1991 41.4423C43.8408 41.2704 44.2216 40.6108 44.0497 39.9691Z" fill="#FF9E2A" fill-opacity="0.5"/>
</g>
</g>
</g>
</g>
<defs>
<clipPath id="clip0_1048_1952">
<rect width="41.0585" height="41.0585" fill="white" transform="translate(20.5293) rotate(30)"/>
</clipPath>
</defs>
</svg>
