<svg width="79" height="38" viewBox="0 0 79 38" fill="none" xmlns="http://www.w3.org/2000/svg">
<path d="M3.76438 5.99135L2.64092 5.24054L4.85983 0.723108L9.90242 2.55846L9.42546 3.86889L5.66761 2.50114L4.57598 4.70088C4.75276 4.66822 4.98443 4.65797 5.27099 4.67013C5.55911 4.678 5.86805 4.74195 6.1978 4.86196C6.63889 5.02251 7.00638 5.23871 7.30026 5.51057C7.59998 5.7797 7.82202 6.09573 7.96636 6.45865C8.11227 6.81729 8.17853 7.21484 8.16517 7.6513C8.15336 8.08349 8.05939 8.54153 7.88326 9.02545C7.72583 9.45798 7.5143 9.83929 7.24866 10.1694C6.9873 10.501 6.67808 10.7643 6.32098 10.9593C5.96388 11.1543 5.56301 11.263 5.11836 11.2854C4.67955 11.3052 4.19892 11.2199 3.67646 11.0298C3.28675 10.8879 2.9323 10.6959 2.6131 10.4536C2.29974 10.2086 2.04227 9.92334 1.84068 9.59778C1.64065 9.26793 1.51499 8.90696 1.46371 8.51487C1.41399 8.11849 1.455 7.69936 1.58673 7.25748L3.10272 7.80925C3.03059 8.12734 3.0198 8.41682 3.07034 8.6777C3.12672 8.93586 3.24385 9.16036 3.42173 9.3512C3.59961 9.54203 3.83201 9.68967 4.11893 9.7941C4.38016 9.88918 4.62136 9.92604 4.84252 9.90469C5.06524 9.87906 5.26987 9.8032 5.45641 9.6771C5.64879 9.54828 5.81782 9.37702 5.9635 9.1633C6.11346 8.95115 6.24066 8.70161 6.34509 8.41468C6.44485 8.14061 6.49963 7.87683 6.50944 7.62337C6.52353 7.37146 6.49031 7.13628 6.40978 6.91782C6.33353 6.70093 6.20685 6.50933 6.02974 6.34302C5.85419 6.17243 5.62938 6.03726 5.3553 5.93751C4.98701 5.80346 4.68489 5.75412 4.44893 5.78948C4.21725 5.8264 3.98907 5.89369 3.76438 5.99135ZM15.6899 11.4813L15.241 12.7146L8.49613 10.2597L8.78375 9.30956L15.1184 4.45694L16.3582 4.90818L14.1787 6.71921L10.506 9.59449L15.6899 11.4813ZM16.7115 5.03677L13.3073 14.3896L11.7592 13.8262L15.1634 4.4733L16.7115 5.03677ZM24.1566 7.74654L20.7524 17.0994L19.14 16.5126L22.5442 7.1597L24.1566 7.74654ZM26.1273 12.865L24.1377 18.3316L22.5896 17.7681L25.1193 10.8177L26.5775 11.3484L26.1273 12.865ZM25.2198 14.4989L24.7211 14.3101C24.9047 13.8192 25.1376 13.3923 25.42 13.0295C25.7067 12.6683 26.0237 12.3835 26.3711 12.1753C26.7227 11.9687 27.0965 11.8477 27.4925 11.8124C27.8901 11.7728 28.2965 11.8286 28.7119 11.9798C29.046 12.1014 29.3307 12.2584 29.5662 12.4508C29.8076 12.6405 29.9872 12.8732 30.1051 13.1489C30.2273 13.4261 30.2797 13.7483 30.2625 14.1155C30.2468 14.4784 30.1525 14.8975 29.9795 15.3728L28.3452 19.863L26.7907 19.2972L28.4273 14.8006C28.5488 14.4666 28.5955 14.1853 28.5671 13.9567C28.5446 13.7254 28.4561 13.5356 28.3015 13.3872C28.1528 13.2361 27.9436 13.1114 27.6738 13.0132C27.4083 12.9166 27.1504 12.8858 26.9 12.9207C26.6496 12.9557 26.4166 13.043 26.2008 13.1827C25.9894 13.324 25.7991 13.507 25.6301 13.7316C25.461 13.9562 25.3243 14.2119 25.2198 14.4989ZM34.5096 19.9752C34.5657 19.821 34.5779 19.6678 34.546 19.5155C34.5156 19.359 34.41 19.1896 34.229 19.0073C34.0523 18.8266 33.7697 18.6171 33.3812 18.3787C33.0425 18.1633 32.7392 17.9438 32.4714 17.7202C32.2095 17.4939 31.9989 17.2596 31.8397 17.0174C31.6805 16.7752 31.5815 16.5209 31.5427 16.2546C31.5038 15.9883 31.5374 15.7095 31.6434 15.4183C31.7462 15.1356 31.9057 14.8906 32.1219 14.6831C32.3381 14.4757 32.5968 14.3177 32.8982 14.2091C33.1996 14.1006 33.5355 14.0506 33.9057 14.0593C34.2803 14.0696 34.6731 14.1495 35.0842 14.2991C35.6666 14.5111 36.1297 14.7912 36.4734 15.1394C36.8229 15.4848 37.0483 15.8651 37.1494 16.2802C37.252 16.691 37.2278 17.1041 37.0766 17.5195L35.5285 16.956C35.5955 16.7719 35.6107 16.5834 35.5742 16.3907C35.5435 16.1952 35.454 16.0147 35.3057 15.8492C35.159 15.6794 34.9464 15.5438 34.6681 15.4425C34.4026 15.3459 34.1664 15.3084 33.9597 15.3302C33.7588 15.3492 33.5913 15.4095 33.4573 15.5111C33.3277 15.6142 33.234 15.745 33.1763 15.9035C33.1342 16.0191 33.1174 16.1318 33.126 16.2416C33.1404 16.3487 33.187 16.4603 33.2661 16.5763C33.3466 16.6881 33.4673 16.8096 33.628 16.9409C33.7931 17.0737 34.006 17.2215 34.2668 17.3843C34.7573 17.6889 35.1612 17.9984 35.4784 18.3127C35.8015 18.6243 36.016 18.9545 36.1218 19.3034C36.2291 19.648 36.2072 20.028 36.056 20.4434C35.9438 20.7518 35.7745 21.0103 35.5483 21.2189C35.3278 21.4248 35.0591 21.5768 34.7422 21.6748C34.4267 21.7685 34.0769 21.8037 33.6926 21.7802C33.3126 21.7583 32.9085 21.6694 32.4802 21.5135C31.8507 21.2844 31.3581 20.979 31.0023 20.5973C30.6481 20.2113 30.4214 19.8015 30.3223 19.3677C30.229 18.9312 30.2517 18.5224 30.3904 18.1413L31.8871 18.686C31.7998 18.9792 31.7956 19.2371 31.8746 19.4599C31.9594 19.6799 32.0949 19.8674 32.2809 20.0224C32.4728 20.1747 32.6844 20.2929 32.9157 20.3771C33.194 20.4784 33.4407 20.527 33.6556 20.5227C33.8721 20.5142 34.053 20.4637 34.1982 20.3711C34.345 20.2741 34.4488 20.1422 34.5096 19.9752ZM42.4119 17.1116L42.0004 18.2422L38.0819 16.816L38.4934 15.6855L42.4119 17.1116ZM40.2436 14.3947L41.7917 14.9581L39.3414 21.6902C39.2635 21.9043 39.2334 22.0801 39.2513 22.2175C39.275 22.3522 39.3355 22.4591 39.4329 22.5382C39.5302 22.6173 39.6538 22.6841 39.8037 22.7386C39.9107 22.7776 40.0158 22.8086 40.119 22.8316C40.2222 22.8546 40.3061 22.8706 40.3707 22.8795L39.9469 24.0638C39.8044 24.0556 39.6421 24.0353 39.4599 24.003C39.2819 23.9721 39.0838 23.917 38.8654 23.8375C38.5099 23.7081 38.2178 23.5315 37.9889 23.3075C37.7616 23.0793 37.6231 22.7937 37.5733 22.4506C37.5236 22.1076 37.5852 21.6984 37.7582 21.223L40.2436 14.3947ZM44.6796 19.4356L42.6314 25.0627L41.0833 24.4993L43.6131 17.5489L45.0905 18.0866L44.6796 19.4356ZM47.3038 18.8412L46.7672 20.2755C46.6793 20.2241 46.5811 20.1738 46.4729 20.1247C46.369 20.0772 46.2635 20.0339 46.1564 19.995C45.8909 19.8983 45.6435 19.8519 45.4141 19.8557C45.1864 19.8553 44.9783 19.9008 44.7898 19.9922C44.6071 20.0809 44.4436 20.2105 44.2991 20.381C44.1546 20.5515 44.0315 20.7565 43.9298 20.9959L43.5671 20.893C43.7261 20.4562 43.9162 20.0671 44.1375 19.7257C44.3587 19.3843 44.6065 19.1035 44.8806 18.8832C45.1591 18.6644 45.4578 18.5234 45.7767 18.46C46.0998 18.3982 46.4349 18.4304 46.7818 18.5567C46.876 18.591 46.9735 18.6362 47.0743 18.6922C47.1794 18.7499 47.2559 18.7996 47.3038 18.8412ZM50.5057 26.0737L52.4392 20.7613L53.9938 21.3271L51.464 28.2775L49.9994 27.7445L50.5057 26.0737ZM51.2501 24.7079L51.7751 24.8844C51.6052 25.3512 51.3972 25.7629 51.151 26.1194C50.9064 26.4717 50.624 26.7545 50.3039 26.9678C49.9854 27.1768 49.6295 27.3019 49.2362 27.343C48.8445 27.3799 48.4152 27.3134 47.9485 27.1435C47.6101 27.0203 47.3176 26.8581 47.0708 26.6567C46.824 26.4553 46.6352 26.2145 46.5045 25.9341C46.378 25.6553 46.3192 25.3307 46.3278 24.9605C46.3365 24.5902 46.4242 24.1759 46.591 23.7177L48.2253 19.2276L49.7734 19.791L48.1344 24.294C48.0425 24.5467 47.9953 24.7696 47.9929 24.9627C47.9921 25.1515 48.0243 25.3161 48.0897 25.4562C48.1551 25.5964 48.2485 25.7129 48.3699 25.8056C48.4914 25.8983 48.6292 25.9727 48.7834 26.0288C49.2245 26.1893 49.6025 26.2299 49.9175 26.1506C50.2384 26.0686 50.5061 25.8993 50.7207 25.6427C50.9396 25.3878 51.1161 25.0761 51.2501 24.7079ZM56.2921 28.7836C56.5447 28.8755 56.7896 28.9089 57.0267 28.8836C57.2697 28.8557 57.486 28.7744 57.6757 28.6397C57.8696 28.5066 58.0159 28.3246 58.1145 28.0938L59.5726 28.6245C59.4004 29.071 59.1188 29.4317 58.7278 29.7065C58.3368 29.9812 57.8896 30.1507 57.3861 30.2148C56.8842 30.2746 56.3763 30.211 55.8624 30.0239C55.3314 29.8306 54.9016 29.5724 54.5731 29.2491C54.2462 28.9216 54.0105 28.5497 53.8662 28.1334C53.7219 27.7171 53.6597 27.275 53.6797 26.807C53.704 26.3406 53.8034 25.8675 53.978 25.3879L54.0598 25.1631C54.2344 24.6834 54.4623 24.2572 54.7435 23.8842C55.0305 23.5086 55.3631 23.2077 55.7413 22.9816C56.1194 22.7555 56.5382 22.6242 56.9977 22.5878C57.4587 22.547 57.9525 22.6225 58.4793 22.8142C59.036 23.0168 59.4837 23.3059 59.8223 23.6813C60.1625 24.0525 60.3808 24.4787 60.4772 24.96C60.5795 25.4385 60.5406 25.9384 60.3605 26.4597L58.9024 25.929C58.983 25.6674 59.003 25.4127 58.9622 25.1651C58.9272 24.9147 58.8295 24.69 58.6692 24.491C58.5131 24.2936 58.2937 24.1434 58.0111 24.0405C57.6985 23.9268 57.416 23.8967 57.1637 23.9504C56.9129 23.9997 56.69 24.1126 56.4949 24.2889C56.3013 24.4609 56.1297 24.6725 55.9802 24.9236C55.8364 25.172 55.7123 25.4396 55.6079 25.7265L55.5261 25.9514C55.4216 26.2383 55.3439 26.5252 55.2928 26.8122C55.2417 27.0991 55.235 27.3707 55.2727 27.6269C55.3162 27.8804 55.4174 28.1087 55.5762 28.312C55.7365 28.511 55.9752 28.6682 56.2921 28.7836ZM65.6399 25.566L65.2284 26.6965L61.3099 25.2703L61.7214 24.1398L65.6399 25.566ZM63.4716 22.849L65.0197 23.4124L62.5694 30.1445C62.4915 30.3586 62.4615 30.5344 62.4793 30.6718C62.5031 30.8065 62.5636 30.9134 62.6609 30.9925C62.7582 31.0716 62.8818 31.1384 63.0317 31.1929C63.1387 31.2319 63.2439 31.2629 63.347 31.2859C63.4502 31.3089 63.5341 31.3249 63.5987 31.3339L63.175 32.5182C63.0325 32.5099 62.8701 32.4896 62.6879 32.4573C62.51 32.4265 62.3118 32.3713 62.0934 32.2918C61.738 32.1624 61.4458 31.9858 61.2169 31.7618C60.9896 31.5336 60.8511 31.248 60.8013 30.9049C60.7516 30.5619 60.8132 30.1527 60.9863 29.6774L63.4716 22.849ZM65.0921 29.3895L65.1459 29.2417C65.3282 28.7407 65.5702 28.3025 65.8716 27.9273C66.1747 27.5477 66.5209 27.2494 66.9103 27.0323C67.3056 26.8124 67.7343 26.6871 68.1965 26.6565C68.6645 26.6232 69.1512 26.6985 69.6565 26.8824C70.1661 27.0679 70.5873 27.323 70.9201 27.6478C71.2587 27.9699 71.5088 28.3422 71.6703 28.7647C71.8333 29.183 71.9089 29.6348 71.897 30.1203C71.8868 30.6016 71.7905 31.0927 71.6081 31.5938L71.5543 31.7415C71.372 32.2426 71.13 32.6807 70.8286 33.056C70.5271 33.4312 70.1787 33.7288 69.7835 33.9486C69.3898 34.1642 68.961 34.2895 68.4973 34.3244C68.0351 34.355 67.5514 34.2784 67.0461 34.0944C66.5364 33.9089 66.1123 33.6552 65.7737 33.3331C65.4409 33.0082 65.193 32.6367 65.0299 32.2185C64.8685 31.796 64.7929 31.3441 64.8032 30.8629C64.8134 30.3817 64.9097 29.8905 65.0921 29.3895ZM66.694 29.8052L66.6402 29.9529C66.5264 30.2655 66.451 30.5727 66.4139 30.8745C66.3768 31.1762 66.3886 31.4569 66.4493 31.7167C66.51 31.9764 66.6255 32.2052 66.796 32.403C66.9665 32.6008 67.1995 32.7535 67.495 32.8611C67.7819 32.9655 68.0521 32.996 68.3056 32.9524C68.5633 32.9105 68.7989 32.8095 69.0123 32.6495C69.2258 32.4896 69.4152 32.2821 69.5808 32.0271C69.7506 31.7737 69.8924 31.4907 70.0062 31.1781L70.06 31.0303C70.1722 30.722 70.2439 30.4183 70.2752 30.1193C70.3123 29.8175 70.2991 29.5339 70.2357 29.2683C70.1766 29.0043 70.0618 28.7734 69.8913 28.5756C69.7267 28.375 69.4988 28.2217 69.2076 28.1157C68.9164 28.0097 68.6411 27.9799 68.3818 28.0261C68.1283 28.0697 67.8941 28.1736 67.6791 28.3378C67.4641 28.502 67.2739 28.7117 67.1083 28.9666C66.9443 29.2173 66.8062 29.4968 66.694 29.8052ZM75.2177 30.5506L73.1696 36.1777L71.6215 35.6143L74.1513 28.6638L75.6287 29.2016L75.2177 30.5506ZM77.842 29.9562L77.3054 31.3905C77.2174 31.339 77.1193 31.2888 77.0111 31.2397C76.9072 31.1922 76.8017 31.1489 76.6946 31.1099C76.4291 31.0133 76.1817 30.9669 75.9523 30.9707C75.7246 30.9703 75.5164 31.0158 75.328 31.1072C75.1453 31.1959 74.9818 31.3255 74.8372 31.496C74.6927 31.6665 74.5697 31.8715 74.468 32.1109L74.1053 32.008C74.2643 31.5712 74.4544 31.1821 74.6757 30.8407C74.8969 30.4993 75.1446 30.2184 75.4188 29.9982C75.6973 29.7794 75.9959 29.6384 76.3148 29.575C76.638 29.5132 76.9731 29.5454 77.3199 29.6717C77.4141 29.7059 77.5117 29.7511 77.6125 29.8072C77.7176 29.8649 77.7941 29.9146 77.842 29.9562Z" fill="#5A69F2"/>
</svg>
