<svg width="47" height="26" viewBox="0 0 47 26" fill="none" xmlns="http://www.w3.org/2000/svg">
<path d="M5.61516 6.91829L3.23198 6.05088L3.64699 4.87067L5.72826 5.62819C6.07942 5.75601 6.39576 5.81294 6.67726 5.79901C6.96461 5.78235 7.20838 5.69891 7.40855 5.54868C7.61028 5.39416 7.76258 5.17558 7.86546 4.89294C7.97924 4.58032 8.01203 4.30369 7.96382 4.06306C7.91561 3.82242 7.78368 3.61194 7.56803 3.4316C7.35666 3.25282 7.06041 3.09407 6.67927 2.95535L5.11832 2.38721L2.18175 10.4554L0.56941 9.86851L3.97358 0.51563L7.14688 1.67062C7.66077 1.85766 8.10107 2.07369 8.46777 2.3187C8.83875 2.56527 9.12738 2.84491 9.33364 3.15763C9.54575 3.46762 9.66694 3.80756 9.6972 4.17746C9.73174 4.54891 9.66952 4.95304 9.51053 5.38985C9.37025 5.77528 9.14959 6.09507 8.84854 6.34923C8.54905 6.5991 8.18282 6.75922 7.74983 6.82956C7.31685 6.89991 6.82569 6.85693 6.27635 6.70064L5.61516 6.91829ZM4.00608 11.1194L1.18608 10.093L2.37723 9.07884L4.47135 9.84104C4.83535 9.97353 5.16123 10.0242 5.44897 9.99318C5.73828 9.95783 5.98185 9.85492 6.17969 9.68444C6.38337 9.51124 6.53821 9.27903 6.6442 8.98782C6.75487 8.68377 6.7972 8.40092 6.77119 8.13926C6.74674 7.87332 6.64071 7.63832 6.4531 7.43424C6.26705 7.22588 5.98774 7.0539 5.61516 6.91829L3.80368 6.25897L4.24439 5.08811L6.60188 5.94617L6.80671 6.52267C7.31437 6.72684 7.69488 6.99385 7.94826 7.32371C8.20591 7.65513 8.35532 8.01747 8.39647 8.41073C8.43763 8.80399 8.38807 9.19333 8.24778 9.57876C8.03113 10.174 7.71893 10.6254 7.31118 10.9329C6.90772 11.2419 6.42584 11.4133 5.86555 11.447C5.30681 11.4764 4.68699 11.3672 4.00608 11.1194ZM9.66881 9.33213L9.72259 9.18438C9.90495 8.68334 10.1469 8.24519 10.4483 7.86994C10.7514 7.49041 11.0976 7.19207 11.487 6.97492C11.8823 6.75505 12.311 6.6298 12.7732 6.59918C13.2412 6.56584 13.7279 6.64112 14.2332 6.82505C14.7428 7.01053 15.164 7.26569 15.4968 7.59051C15.8355 7.9126 16.0855 8.2849 16.247 8.7074C16.41 9.12562 16.4856 9.57748 16.4738 10.063C16.4635 10.5442 16.3672 11.0354 16.1848 11.5364L16.131 11.6842C15.9487 12.1852 15.7067 12.6234 15.4053 12.9986C15.1038 13.3739 14.7554 13.6714 14.3602 13.8913C13.9665 14.1069 13.5378 14.2321 13.074 14.267C12.6118 14.2977 12.1281 14.221 11.6228 14.0371C11.1132 13.8516 10.689 13.5978 10.3504 13.2757C10.0176 12.9509 9.76967 12.5794 9.60665 12.1612C9.4452 11.7387 9.3696 11.2868 9.37986 10.8056C9.39013 10.3243 9.48645 9.83317 9.66881 9.33213ZM11.2707 9.74785L11.2169 9.89559C11.1031 10.2082 11.0277 10.5154 10.9906 10.8171C10.9535 11.1189 10.9653 11.3996 11.026 11.6593C11.0867 11.919 11.2022 12.1478 11.3727 12.3457C11.5432 12.5435 11.7762 12.6962 12.0717 12.8037C12.3586 12.9082 12.6288 12.9386 12.8823 12.8951C13.14 12.8531 13.3756 12.7522 13.5891 12.5922C13.8025 12.4322 13.9919 12.2248 14.1575 11.9698C14.3273 11.7164 14.4691 11.4333 14.5829 11.1207L14.6367 10.973C14.7489 10.6646 14.8207 10.361 14.8519 10.0619C14.889 9.76021 14.8758 9.47656 14.8124 9.211C14.7533 8.947 14.6385 8.71607 14.4681 8.51823C14.3034 8.31767 14.0755 8.16439 13.7843 8.0584C13.4931 7.95241 13.2178 7.92254 12.9585 7.9688C12.705 8.01233 12.4708 8.11622 12.2558 8.28046C12.0408 8.44471 11.8506 8.65432 11.685 8.9093C11.521 9.15999 11.3829 9.43951 11.2707 9.74785ZM17.1331 12.0489L17.1869 11.9012C17.3693 11.4001 17.6112 10.962 17.9127 10.5867C18.2157 10.2072 18.5619 9.90885 18.9513 9.69171C19.3466 9.47184 19.7753 9.34659 20.2375 9.31597C20.7055 9.28262 21.1922 9.35791 21.6975 9.54184C22.2071 9.72732 22.6283 9.98247 22.9611 10.3073C23.2998 10.6294 23.5498 11.0017 23.7113 11.4242C23.8743 11.8424 23.9499 12.2943 23.9381 12.7798C23.9278 13.261 23.8315 13.7522 23.6491 14.2532L23.5953 14.401C23.413 14.902 23.1711 15.3402 22.8696 15.7154C22.5681 16.0907 22.2198 16.3882 21.8245 16.6081C21.4308 16.8237 21.0021 16.9489 20.5383 16.9838C20.0762 17.0145 19.5924 16.9378 19.0871 16.7539C18.5775 16.5684 18.1533 16.3146 17.8147 15.9925C17.4819 15.6677 17.234 15.2962 17.071 14.878C16.9095 14.4555 16.8339 14.0036 16.8442 13.5223C16.8544 13.0411 16.9508 12.55 17.1331 12.0489ZM18.735 12.4646L18.6812 12.6124C18.5675 12.925 18.492 13.2322 18.4549 13.5339C18.4179 13.8357 18.4297 14.1164 18.4903 14.3761C18.551 14.6358 18.6666 14.8646 18.837 15.0624C19.0075 15.2603 19.2405 15.413 19.536 15.5205C19.8229 15.625 20.0931 15.6554 20.3466 15.6119C20.6044 15.5699 20.84 15.4689 21.0534 15.309C21.2668 15.149 21.4563 14.9415 21.6218 14.6866C21.7916 14.4331 21.9335 14.1501 22.0472 13.8375L22.101 13.6898C22.2132 13.3814 22.285 13.0778 22.3162 12.7787C22.3533 12.477 22.3401 12.1933 22.2767 11.9278C22.2176 11.6638 22.1029 11.4329 21.9324 11.235C21.7677 11.0345 21.5398 10.8812 21.2486 10.7752C20.9574 10.6692 20.6821 10.6393 20.4228 10.6856C20.1693 10.7291 19.9351 10.833 19.7201 10.9973C19.5051 11.1615 19.3149 11.3711 19.1493 11.6261C18.9853 11.8768 18.8472 12.1563 18.735 12.4646ZM28.8083 8.97275L25.2171 18.8395L23.6625 18.2737L27.2538 8.40695L28.8083 8.97275ZM32.0635 13.4603L27.8175 15.7122L25.543 16.8048L25.6152 15.3471L27.4313 14.2549L30.1942 12.7799L32.0635 13.4603ZM27.9985 19.8519L26.9315 15.768L28.3031 15.0378L29.7907 20.5042L27.9985 19.8519ZM33.4055 21.9653C32.8916 21.7783 32.4573 21.5257 32.1027 21.2075C31.7539 20.8865 31.4893 20.5211 31.3087 20.111C31.1325 19.7025 31.0421 19.2647 31.0376 18.7974C31.033 18.3302 31.1173 17.8589 31.2903 17.3836L31.3838 17.1266C31.5818 16.5827 31.8402 16.1191 32.1592 15.7357C32.4782 15.3523 32.8359 15.0557 33.2324 14.8459C33.6303 14.6319 34.0524 14.5115 34.4986 14.4848C34.9449 14.4581 35.3928 14.5265 35.8424 14.6902C36.3392 14.871 36.7435 15.1127 37.0553 15.4153C37.3671 15.7179 37.5897 16.0657 37.7231 16.4586C37.8624 16.8488 37.9164 17.2734 37.8851 17.7324C37.8581 18.193 37.7534 18.6738 37.571 19.1749L37.3302 19.8365L31.96 17.8819L32.3645 16.7706L36.2059 18.1688L36.2503 18.0467C36.343 17.7653 36.3824 17.4838 36.3685 17.2023C36.3589 16.9223 36.2785 16.67 36.1275 16.4453C35.9765 16.2206 35.7297 16.0459 35.3871 15.9212C35.1302 15.8277 34.8808 15.7999 34.639 15.838C34.403 15.8734 34.1813 15.9697 33.9737 16.1269C33.7661 16.2842 33.5729 16.4951 33.3942 16.7599C33.2212 17.0218 33.0693 17.3327 32.9383 17.6924L32.8448 17.9494C32.7341 18.2534 32.672 18.5509 32.6582 18.8417C32.6504 19.1298 32.6927 19.3999 32.7853 19.6518C32.8779 19.9037 33.0196 20.1275 33.2103 20.323C33.4026 20.5142 33.6465 20.6636 33.942 20.7712C34.3145 20.9068 34.6737 20.9526 35.0195 20.9087C35.3652 20.8648 35.695 20.7448 36.0089 20.5487L36.5372 21.6357C36.3078 21.7996 36.0365 21.9385 35.7235 22.0525C35.412 22.1622 35.0602 22.216 34.6681 22.2139C34.2803 22.2134 33.8594 22.1306 33.4055 21.9653ZM42.2047 23.393L45.2722 14.9651L46.8267 15.5309L43.2355 25.3977L41.8287 24.8857L42.2047 23.393ZM38.3955 19.7878L38.4446 19.6529C38.6363 19.1262 38.873 18.6691 39.1546 18.2818C39.4378 17.8902 39.754 17.5809 40.1034 17.354C40.4542 17.1229 40.8292 16.9853 41.2283 16.9415C41.629 16.8933 42.0413 16.9464 42.4653 17.1007C42.8849 17.2534 43.2236 17.4688 43.4813 17.7469C43.739 18.025 43.9238 18.3566 44.0358 18.7417C44.1494 19.1225 44.1962 19.5469 44.1762 20.0149C44.1578 20.4786 44.0836 20.9754 43.9538 21.5053L43.7972 21.9357C43.5607 22.4122 43.3013 22.8319 43.0189 23.1947C42.7365 23.5574 42.4294 23.8482 42.0976 24.0669C41.7658 24.2856 41.4097 24.4179 41.0293 24.4638C40.6532 24.5111 40.2531 24.4577 39.8291 24.3034C39.4095 24.1506 39.0624 23.9249 38.788 23.6262C38.5179 23.329 38.3227 22.9791 38.2025 22.5765C38.0823 22.1739 38.0381 21.7358 38.0698 21.2624C38.103 20.7846 38.2116 20.2931 38.3955 19.7878ZM39.9927 20.2164L39.9436 20.3513C39.8283 20.6682 39.7486 20.9738 39.7045 21.2681C39.6647 21.564 39.6687 21.8395 39.7165 22.0945C39.7659 22.3453 39.8672 22.5665 40.0206 22.7581C40.1798 22.947 40.3985 23.0921 40.6769 23.1934C41.0281 23.3212 41.3452 23.3493 41.6283 23.2778C41.9114 23.2062 42.1647 23.0632 42.3882 22.8487C42.6176 22.6315 42.8151 22.3688 42.9807 22.0604L43.4039 20.8978C43.4701 20.6357 43.5023 20.3807 43.5004 20.1327C43.5029 19.8862 43.4673 19.6575 43.3938 19.4464C43.3218 19.2311 43.2037 19.0426 43.0394 18.881C42.881 18.7166 42.669 18.5861 42.4035 18.4895C42.1209 18.3866 41.8592 18.3593 41.6186 18.4075C41.378 18.4557 41.1552 18.5614 40.9504 18.7244C40.7498 18.8891 40.5689 19.0997 40.4076 19.3562C40.2464 19.6127 40.1081 19.8995 39.9927 20.2164Z" fill="#FF991F"/>
</svg>
